<svg xmlns="http://www.w3.org/2000/svg" viewBox="0 0 250 51.85" width="250px" height="51.85px">
  <g>
    <path d="M0,26C0,10.1,12,0,25.33,0c13.75,0,20.84,8.42,22.8,16.49L39,19.37c-1.19-4.77-5.05-10-13.68-10C17.89,9.33,10,14.66,10,26c0,10.6,7.44,16.42,15.44,16.42,8.49,0,12.63-5.54,14-10.17l9.05,2.74c-1.89,7.65-9.05,16.91-23,16.91S0,41.82,0,26Z" fill="#0d3572"/>
    <path d="M84.13,39.43H63.92L59.78,50.8H49.54L68.62,1.05H79.85L98.79,50.8H88.27Zm-17-8.84H80.9L74,11.79Z" fill="#0d3572"/>
    <path d="M120.25,31.64H115.2V50.8h-9.75V1.05h19.44c9.68,0,15.86,6.67,15.86,15.3a14.12,14.12,0,0,1-10.6,14.1L140.81,50.8H130Zm2.81-8.35c4.91,0,7.79-2.81,7.79-6.88S128,9.47,123.06,9.47H115.2V23.29Z" fill="#0d3572"/>
    <path d="M145.19,26c0-15.86,12-26,25.33-26,13.75,0,20.84,8.42,22.8,16.49l-9.12,2.88c-1.19-4.77-5.05-10-13.68-10-7.44,0-15.3,5.33-15.3,16.63,0,10.6,7.44,16.42,15.44,16.42,8.49,0,12.63-5.54,14-10.17l9.05,2.74c-1.89,7.65-9.05,16.91-23,16.91S145.19,41.82,145.19,26Z" fill="#0d3572"/>
    <path d="M224.39,0C237.93,0,250,9.89,250,26s-12.07,25.89-25.61,25.89S198.85,42,198.85,26,210.92,0,224.39,0Zm0,42.45c7.72,0,15.58-5.33,15.58-16.56S232.11,9.33,224.39,9.33s-15.51,5.33-15.51,16.56S216.74,42.45,224.39,42.45Z" fill="#0d3572"/>
  </g>
</svg>
